<svg width="68" height="60" viewBox="0 0 68 60" fill="none" xmlns="http://www.w3.org/2000/svg">
<path d="M34.0001 0.49353C42.148 0.49353 49.5247 3.79618 54.8643 9.13579C58.0209 12.2924 60.4654 16.1611 61.9367 20.4801H60.9315C59.4975 16.4234 57.1731 12.7874 54.1929 9.80722C49.0251 4.6395 41.8859 1.44316 34.0001 1.44316C26.1143 1.44316 18.9751 4.6395 13.8074 9.80722C10.8272 12.7874 8.50275 16.4234 7.06878 20.4801H6.06348C7.53483 16.1611 9.97931 12.2924 13.136 9.13579C18.4756 3.79618 25.8522 0.49353 34.0001 0.49353ZM61.2191 41.4099C59.7249 44.97 57.553 48.1754 54.8643 50.8641C49.5247 56.2037 42.148 59.5064 34.0001 59.5064C25.8522 59.5064 18.4756 56.2037 13.136 50.8641C10.4472 48.1754 8.27534 44.97 6.78119 41.4099H7.81408C9.25352 44.7088 11.298 47.6833 13.8074 50.1927C18.9751 55.3604 26.1143 58.5567 34.0001 58.5567C41.8859 58.5567 49.0251 55.3604 54.1929 50.1927C56.7023 47.6833 58.7467 44.7088 60.1862 41.4099H61.2191Z" fill="#4BB7BA"/>
<path d="M0.50473 21.9241H20.664C20.942 21.9241 21.1688 22.1508 21.1688 22.4288V24.3504C21.1688 24.6284 20.942 24.8551 20.664 24.8551H7.35259H5.14564H0.50473C0.226742 24.8551 0 24.6284 0 24.3504V22.4288C0 22.1508 0.226742 21.9241 0.50473 21.9241ZM5.14564 26.1578H7.35259H20.664C20.942 26.1578 21.1688 26.3846 21.1688 26.6625V28.5842C21.1688 28.8621 20.942 29.0889 20.664 29.0889H5.65036C5.37238 29.0889 5.14564 29.3156 5.14564 29.5936V29.8868C5.14564 30.1648 5.37238 30.3916 5.65036 30.3916H20.664C20.942 30.3916 21.1688 30.6183 21.1688 30.8963V32.8179C21.1688 33.0959 20.942 33.3226 20.664 33.3226H0.50473C0.226742 33.3226 0 33.0959 0 32.8179V26.6625C0 26.3846 0.226742 26.1578 0.50473 26.1578H5.14564Z" fill="#4BB7BA"/>
<path d="M29.606 22.0186L33.3812 24.7256C33.5601 24.8539 33.7905 24.8539 33.9694 24.7256L37.7446 22.0186C37.8341 21.9545 37.9287 21.9241 38.0388 21.9241H43.5693C43.7923 21.9241 43.9816 22.0621 44.0498 22.2743C44.1181 22.4865 44.0447 22.709 43.8635 22.8389L37.8784 27.1318C37.742 27.2296 37.6679 27.374 37.6679 27.5419C37.6679 27.7098 37.742 27.8542 37.8785 27.9521L44.0913 32.4077C44.2725 32.5377 44.3459 32.7601 44.2777 32.9724C44.2094 33.1846 44.0201 33.3226 43.7971 33.3226H38.2667C38.1566 33.3226 38.0621 33.2922 37.9726 33.2281L33.9694 30.3581C33.7905 30.2299 33.5602 30.2299 33.3812 30.3581L29.378 33.2281C29.2886 33.2922 29.194 33.3226 29.084 33.3226H23.5535C23.3306 33.3226 23.1413 33.1846 23.073 32.9724C23.0048 32.7601 23.0782 32.5376 23.2594 32.4077L29.4722 27.9521C29.6086 27.8542 29.6828 27.7098 29.6828 27.5419C29.6828 27.374 29.6086 27.2296 29.4722 27.1318L23.4872 22.8389C23.306 22.709 23.2326 22.4865 23.3008 22.2743C23.3691 22.0621 23.5584 21.9241 23.7813 21.9241H29.3119C29.422 21.9241 29.5166 21.9545 29.606 22.0186Z" fill="#4BB7BA"/>
<path d="M46.8475 21.9241H63.4406C64.1571 21.9241 64.7976 22.0543 65.3621 22.3149C65.9266 22.5754 66.4042 22.9201 66.795 23.3489C67.1858 23.7777 67.4844 24.2635 67.6906 24.8063C67.8969 25.3491 68 25.9081 68 26.4835C68 27.048 67.8969 27.6043 67.6906 28.1526C67.4844 28.7008 67.1858 29.1893 66.795 29.6181C66.4042 30.0469 65.9266 30.3916 65.3621 30.6521C64.7976 30.9126 64.1571 31.0429 63.4406 31.0429H51.9932C51.7152 31.0429 51.4884 31.2697 51.4884 31.5476V32.8179C51.4884 33.0959 51.2617 33.3226 50.9837 33.3226H46.8475C46.5695 33.3226 46.3428 33.0959 46.3428 32.8179V27.6396C46.3428 27.3616 46.5695 27.1348 46.8475 27.1348H51.4884H57.4345H62.1379C62.6156 27.1348 62.8544 26.9177 62.8544 26.4835C62.8544 26.0493 62.6156 25.8321 62.1379 25.8321H57.4345H51.4884H46.8475C46.5695 25.8321 46.3428 25.6054 46.3428 25.3274V22.4288C46.3428 22.1508 46.5695 21.9241 46.8475 21.9241Z" fill="#4BB7BA"/>
<path d="M2.59722 37.483C2.59722 37.5191 2.59394 37.5666 2.58738 37.6257H0.472226C0.501736 37.8552 0.602581 38.0397 0.774744 38.179C0.946908 38.3184 1.16088 38.3881 1.41666 38.3881C1.7282 38.3881 1.97908 38.2832 2.16928 38.0733L2.42997 38.3783C2.31192 38.516 2.16518 38.6209 1.98973 38.6931C1.81429 38.7652 1.61835 38.8013 1.40191 38.8013C1.12644 38.8013 0.882134 38.7447 0.668986 38.6316C0.455822 38.5185 0.291044 38.3602 0.17462 38.1569C0.0581954 37.9536 0 37.724 0 37.4682C0 37.2157 0.0565633 36.9878 0.169707 36.7845C0.282834 36.5812 0.438611 36.4229 0.637003 36.3098C0.835413 36.1967 1.05923 36.1401 1.30845 36.1401C1.55768 36.1401 1.77985 36.1967 1.97498 36.3098C2.17009 36.4229 2.32258 36.5812 2.43245 36.7845C2.54229 36.9878 2.59722 37.2207 2.59722 37.483ZM1.30845 36.5385C1.08218 36.5385 0.892801 36.6074 0.740305 36.7451C0.587809 36.8829 0.498455 37.0632 0.472226 37.2862H2.14468C2.11844 37.0665 2.02908 36.887 1.87659 36.7476C1.72411 36.6082 1.53472 36.5385 1.30845 36.5385ZM4.84028 38.7718L4.08768 37.7732L3.32523 38.7718H2.7989L3.82697 37.4387L2.84809 36.1647H3.37442L4.09261 37.1042L4.80586 36.1647H5.32235L4.33854 37.4387L5.37645 38.7718H4.84028ZM7.27518 36.1401C7.5277 36.1401 7.75397 36.1959 7.95401 36.3074C8.15405 36.4189 8.31064 36.5746 8.42376 36.7747C8.53691 36.9747 8.59347 37.2059 8.59347 37.4682C8.59347 37.7306 8.53691 37.9626 8.42376 38.1643C8.31064 38.366 8.15405 38.5225 7.95401 38.6341C7.75397 38.7455 7.5277 38.8013 7.27518 38.8013C7.08826 38.8013 6.91693 38.7652 6.76115 38.6931C6.60539 38.6209 6.47338 38.516 6.36517 38.3783V39.7261H5.89295V36.1647H6.34549V36.5779C6.45044 36.4336 6.58325 36.3246 6.74394 36.2508C6.90463 36.177 7.0817 36.1401 7.27518 36.1401ZM7.23583 38.3881C7.40308 38.3881 7.5531 38.3496 7.68591 38.2725C7.81873 38.1954 7.92368 38.0872 8.00073 37.9478C8.0778 37.8085 8.11633 37.6486 8.11633 37.4682C8.11633 37.2879 8.0778 37.128 8.00073 36.9886C7.92368 36.8493 7.81873 36.7419 7.68591 36.6664C7.5531 36.591 7.40308 36.5533 7.23583 36.5533C7.07186 36.5533 6.92347 36.5918 6.79066 36.6689C6.65785 36.746 6.55291 36.8534 6.47584 36.9911C6.39879 37.1288 6.36026 37.2879 6.36026 37.4682C6.36026 37.6486 6.39796 37.8085 6.47338 37.9478C6.54881 38.0872 6.65376 38.1954 6.7882 38.2725C6.92266 38.3496 7.07186 38.3881 7.23583 38.3881ZM10.1725 36.1401C10.5332 36.1401 10.8095 36.2287 11.0013 36.4057C11.1932 36.5828 11.2891 36.8468 11.2891 37.1977V38.7718H10.8415V38.4274C10.7628 38.5488 10.6504 38.6414 10.5045 38.7054C10.3586 38.7693 10.1856 38.8013 9.98555 38.8013C9.69368 38.8013 9.46004 38.7308 9.2846 38.5898C9.10915 38.4488 9.02143 38.2635 9.02143 38.0339C9.02143 37.8044 9.10505 37.6199 9.2723 37.4805C9.43953 37.3412 9.70517 37.2715 10.0692 37.2715H10.8169V37.178C10.8169 36.9747 10.7578 36.8189 10.6398 36.7107C10.5217 36.6025 10.3479 36.5484 10.1184 36.5484C9.96423 36.5484 9.81339 36.5738 9.66582 36.6246C9.51824 36.6755 9.39364 36.7435 9.29197 36.8288L9.09521 36.4746C9.22967 36.3664 9.39036 36.2836 9.57727 36.2262C9.76419 36.1688 9.9626 36.1401 10.1725 36.1401ZM10.0643 38.4373C10.2446 38.4373 10.4004 38.3971 10.5316 38.3168C10.6627 38.2364 10.7578 38.1225 10.8169 37.9749V37.6109H10.0889C9.68877 37.6109 9.48873 37.7453 9.48873 38.0142C9.48873 38.1454 9.53955 38.2487 9.64122 38.3241C9.74288 38.3996 9.8839 38.4373 10.0643 38.4373ZM13.5568 36.1401C13.888 36.1401 14.1511 36.236 14.3463 36.4279C14.5414 36.6197 14.6389 36.9009 14.6389 37.2715V38.7718H14.1667V37.3256C14.1667 37.0731 14.106 36.8829 13.9847 36.755C13.8634 36.6271 13.6896 36.5631 13.4633 36.5631C13.2075 36.5631 13.0058 36.6377 12.8583 36.787C12.7107 36.9362 12.6369 37.1501 12.6369 37.4289V38.7718H12.1647V36.1647H12.6172V36.5582C12.7123 36.4238 12.841 36.3205 13.0034 36.2483C13.1657 36.1762 13.3501 36.1401 13.5568 36.1401ZM17.9888 35.1219V38.7718H17.5362V38.3586C17.4313 38.5029 17.2985 38.6127 17.1378 38.6882C16.9771 38.7636 16.8 38.8013 16.6065 38.8013C16.354 38.8013 16.1277 38.7455 15.9277 38.6341C15.7277 38.5225 15.5711 38.366 15.458 38.1643C15.3448 37.9626 15.2882 37.7306 15.2882 37.4682C15.2882 37.2059 15.3448 36.9747 15.458 36.7747C15.5711 36.5746 15.7277 36.4189 15.9277 36.3074C16.1277 36.1959 16.354 36.1401 16.6065 36.1401C16.7935 36.1401 16.9656 36.1754 17.123 36.2459C17.2804 36.3164 17.4116 36.4205 17.5165 36.5582V35.1219H17.9888ZM16.6459 38.3881C16.8099 38.3881 16.9591 38.3496 17.0935 38.2725C17.228 38.1954 17.3329 38.0872 17.4083 37.9478C17.4838 37.8085 17.5215 37.6486 17.5215 37.4682C17.5215 37.2879 17.4838 37.128 17.4083 36.9886C17.3329 36.8493 17.228 36.7419 17.0935 36.6664C16.9591 36.591 16.8099 36.5533 16.6459 36.5533C16.4786 36.5533 16.3286 36.591 16.1958 36.6664C16.063 36.7419 15.958 36.8493 15.881 36.9886C15.8039 37.128 15.7654 37.2879 15.7654 37.4682C15.7654 37.6486 15.8039 37.8085 15.881 37.9478C15.958 38.0872 16.063 38.1954 16.1958 38.2725C16.3286 38.3496 16.4786 38.3881 16.6459 38.3881ZM24.1523 36.1647L23.1783 38.7718H22.7258L21.9732 36.7943L21.2107 38.7718H20.7582L19.7891 36.1647H20.2368L20.9943 38.2405L21.7813 36.1647H22.1798L22.9521 38.2504L23.7293 36.1647H24.1523ZM24.6294 36.1647H25.1017V38.7718H24.6294V36.1647ZM24.8655 35.663C24.7737 35.663 24.6975 35.6334 24.6368 35.5744C24.5761 35.5154 24.5458 35.4432 24.5458 35.358C24.5458 35.2727 24.5761 35.1998 24.6368 35.1391C24.6975 35.0784 24.7737 35.0481 24.8655 35.0481C24.9574 35.0481 25.0336 35.0768 25.0943 35.1342C25.1549 35.1916 25.1853 35.2629 25.1853 35.3482C25.1853 35.4367 25.1549 35.5113 25.0943 35.572C25.0336 35.6326 24.9574 35.663 24.8655 35.663ZM27.4677 38.6193C27.3988 38.6783 27.3135 38.7234 27.2119 38.7546C27.1102 38.7857 27.0053 38.8013 26.8971 38.8013C26.6347 38.8013 26.4314 38.7308 26.2871 38.5898C26.1428 38.4488 26.0707 38.2471 26.0707 37.9847V36.5533H25.628V36.1647H26.0707V35.5941H26.5429V36.1647H27.2906V36.5533H26.5429V37.9651C26.5429 38.1061 26.5782 38.2143 26.6487 38.2897C26.7192 38.3651 26.82 38.4029 26.9512 38.4029C27.0955 38.4029 27.2185 38.3619 27.3201 38.2799L27.4677 38.6193ZM29.4304 36.1401C29.7616 36.1401 30.0247 36.236 30.2199 36.4279C30.415 36.6197 30.5125 36.9009 30.5125 37.2715V38.7718H30.0403V37.3256C30.0403 37.0731 29.9797 36.8829 29.8583 36.755C29.737 36.6271 29.5632 36.5631 29.3369 36.5631C29.0811 36.5631 28.8794 36.6377 28.7319 36.787C28.5843 36.9362 28.5105 37.1501 28.5105 37.4289V38.7718H28.0383V35.1219H28.5105V36.5336C28.6089 36.409 28.7376 36.3123 28.8967 36.2434C29.0557 36.1746 29.2336 36.1401 29.4304 36.1401ZM34.1772 38.6193C34.1083 38.6783 34.0231 38.7234 33.9214 38.7546C33.8198 38.7857 33.7148 38.8013 33.6066 38.8013C33.3443 38.8013 33.1409 38.7308 32.9967 38.5898C32.8524 38.4488 32.7802 38.2471 32.7802 37.9847V36.5533H32.3375V36.1647H32.7802V35.5941H33.2524V36.1647H34.0001V36.5533H33.2524V37.9651C33.2524 38.1061 33.2877 38.2143 33.3582 38.2897C33.4287 38.3651 33.5296 38.4029 33.6607 38.4029C33.805 38.4029 33.928 38.3619 34.0296 38.2799L34.1772 38.6193ZM36.1399 36.1401C36.4711 36.1401 36.7343 36.236 36.9294 36.4279C37.1245 36.6197 37.2221 36.9009 37.2221 37.2715V38.7718H36.7499V37.3256C36.7499 37.0731 36.6892 36.8829 36.5678 36.755C36.4465 36.6271 36.2727 36.5631 36.0464 36.5631C35.7906 36.5631 35.589 36.6377 35.4414 36.787C35.2938 36.9362 35.22 37.1501 35.22 37.4289V38.7718H34.7478V35.1219H35.22V36.5336C35.3184 36.409 35.4471 36.3123 35.6062 36.2434C35.7652 36.1746 35.9431 36.1401 36.1399 36.1401ZM40.4686 37.483C40.4686 37.5191 40.4653 37.5666 40.4588 37.6257H38.3436C38.3731 37.8552 38.474 38.0397 38.6461 38.179C38.8183 38.3184 39.0323 38.3881 39.2881 38.3881C39.5996 38.3881 39.8505 38.2832 40.0407 38.0733L40.3014 38.3783C40.1833 38.516 40.0366 38.6209 39.8611 38.6931C39.6857 38.7652 39.4897 38.8013 39.2733 38.8013C38.9978 38.8013 38.7535 38.7447 38.5404 38.6316C38.3272 38.5185 38.1624 38.3602 38.046 38.1569C37.9296 37.9536 37.8714 37.724 37.8714 37.4682C37.8714 37.2157 37.928 36.9878 38.0411 36.7845C38.1542 36.5812 38.31 36.4229 38.5084 36.3098C38.7068 36.1967 38.9306 36.1401 39.1798 36.1401C39.4291 36.1401 39.6512 36.1967 39.8464 36.3098C40.0415 36.4229 40.194 36.5812 40.3038 36.7845C40.4137 36.9878 40.4686 37.2207 40.4686 37.483ZM39.1798 36.5385C38.9536 36.5385 38.7642 36.6074 38.6117 36.7451C38.4592 36.8829 38.3699 37.0632 38.3436 37.2862H40.0161C39.9898 37.0665 39.9005 36.887 39.748 36.7476C39.5955 36.6082 39.4061 36.5385 39.1798 36.5385ZM43.5627 38.8013C43.3036 38.8013 43.0708 38.7439 42.8642 38.6291C42.6576 38.5143 42.4961 38.3561 42.3797 38.1544C42.2632 37.9528 42.205 37.724 42.205 37.4682C42.205 37.2124 42.2632 36.9837 42.3797 36.782C42.4961 36.5804 42.6576 36.4229 42.8642 36.3098C43.0708 36.1967 43.3036 36.1401 43.5627 36.1401C43.8217 36.1401 44.0538 36.1967 44.2587 36.3098C44.4637 36.4229 44.6244 36.5804 44.7408 36.782C44.8572 36.9837 44.9154 37.2124 44.9154 37.4682C44.9154 37.724 44.8572 37.9528 44.7408 38.1544C44.6244 38.3561 44.4637 38.5143 44.2587 38.6291C44.0538 38.7439 43.8217 38.8013 43.5627 38.8013ZM43.5627 38.3881C43.7299 38.3881 43.88 38.3496 44.0128 38.2725C44.1456 38.1954 44.2497 38.0872 44.3251 37.9478C44.4006 37.8085 44.4383 37.6486 44.4383 37.4682C44.4383 37.2879 44.4006 37.128 44.3251 36.9886C44.2497 36.8493 44.1456 36.7419 44.0128 36.6664C43.88 36.591 43.7299 36.5533 43.5627 36.5533C43.3954 36.5533 43.2454 36.591 43.1126 36.6664C42.9798 36.7419 42.8748 36.8493 42.7978 36.9886C42.7207 37.128 42.6822 37.2879 42.6822 37.4682C42.6822 37.6486 42.7207 37.8085 42.7978 37.9478C42.8748 38.0872 42.9798 38.1954 43.1126 38.2725C43.2454 38.3496 43.3954 38.3881 43.5627 38.3881ZM48.8309 36.1401C49.1589 36.1401 49.4188 36.2352 49.6106 36.4254C49.8024 36.6156 49.8983 36.8976 49.8983 37.2715V38.7718H49.4261V37.3256C49.4261 37.0731 49.3679 36.8829 49.2515 36.755C49.1351 36.6271 48.9687 36.5631 48.7522 36.5631C48.5128 36.5631 48.3226 36.6377 48.1816 36.787C48.0406 36.9362 47.9701 37.1501 47.9701 37.4289V38.7718H47.4979V37.3256C47.4979 37.0731 47.4397 36.8829 47.3232 36.755C47.2068 36.6271 47.0404 36.5631 46.824 36.5631C46.5846 36.5631 46.3944 36.6377 46.2534 36.787C46.1124 36.9362 46.0419 37.1501 46.0419 37.4289V38.7718H45.5696V36.1647H46.0222V36.5533C46.1173 36.4189 46.2419 36.3164 46.396 36.2459C46.5501 36.1754 46.7256 36.1401 46.9224 36.1401C47.1257 36.1401 47.306 36.1811 47.4634 36.2631C47.6208 36.3451 47.7422 36.4648 47.8275 36.6222C47.9258 36.4713 48.0627 36.3533 48.2382 36.268C48.4136 36.1827 48.6112 36.1401 48.8309 36.1401ZM52.1611 36.1401C52.4923 36.1401 52.7555 36.236 52.9506 36.4279C53.1457 36.6197 53.2433 36.9009 53.2433 37.2715V38.7718H52.771V37.3256C52.771 37.0731 52.7104 36.8829 52.589 36.755C52.4677 36.6271 52.2939 36.5631 52.0676 36.5631C51.8118 36.5631 51.6102 36.6377 51.4626 36.787C51.315 36.9362 51.2412 37.1501 51.2412 37.4289V38.7718H50.769V36.1647H51.2215V36.5582C51.3167 36.4238 51.4454 36.3205 51.6077 36.2483C51.77 36.1762 51.9545 36.1401 52.1611 36.1401ZM54.1189 36.1647H54.5911V38.7718H54.1189V36.1647ZM54.355 35.663C54.2631 35.663 54.1869 35.6334 54.1262 35.5744C54.0656 35.5154 54.0352 35.4432 54.0352 35.358C54.0352 35.2727 54.0656 35.1998 54.1262 35.1391C54.1869 35.0784 54.2631 35.0481 54.355 35.0481C54.4468 35.0481 54.523 35.0768 54.5837 35.1342C54.6444 35.1916 54.6747 35.2629 54.6747 35.3482C54.6747 35.4367 54.6444 35.5113 54.5837 35.572C54.523 35.6326 54.4468 35.663 54.355 35.663ZM57.7983 36.1647L56.6571 38.7718H56.175L55.0338 36.1647H55.5257L56.4209 38.2553L57.3359 36.1647H57.7983ZM60.5234 37.483C60.5234 37.5191 60.5201 37.5666 60.5135 37.6257H58.3984C58.4279 37.8552 58.5287 38.0397 58.7009 38.179C58.8731 38.3184 59.087 38.3881 59.3428 38.3881C59.6543 38.3881 59.9052 38.2832 60.0954 38.0733L60.3561 38.3783C60.2381 38.516 60.0913 38.6209 59.9159 38.6931C59.7404 38.7652 59.5445 38.8013 59.3281 38.8013C59.0526 38.8013 58.8083 38.7447 58.5951 38.6316C58.382 38.5185 58.2172 38.3602 58.1008 38.1569C57.9843 37.9536 57.9261 37.724 57.9261 37.4682C57.9261 37.2157 57.9827 36.9878 58.0959 36.7845C58.209 36.5812 58.3648 36.4229 58.5632 36.3098C58.7616 36.1967 58.9854 36.1401 59.2346 36.1401C59.4838 36.1401 59.706 36.1967 59.9011 36.3098C60.0962 36.4229 60.2487 36.5812 60.3586 36.7845C60.4684 36.9878 60.5234 37.2207 60.5234 37.483ZM59.2346 36.5385C59.0083 36.5385 58.8189 36.6074 58.6665 36.7451C58.514 36.8829 58.4246 37.0632 58.3984 37.2862H60.0708C60.0446 37.0665 59.9552 36.887 59.8027 36.7476C59.6503 36.6082 59.4609 36.5385 59.2346 36.5385ZM61.6301 36.6025C61.7121 36.4516 61.8335 36.3369 61.9942 36.2582C62.1548 36.1795 62.35 36.1401 62.5795 36.1401V36.5976C62.5533 36.5943 62.5172 36.5927 62.4713 36.5927C62.2155 36.5927 62.0146 36.6689 61.8687 36.8214C61.7228 36.9739 61.6498 37.1911 61.6498 37.4732V38.7718H61.1776V36.1647H61.6301V36.6025ZM63.9273 38.8013C63.7142 38.8013 63.5092 38.7726 63.3124 38.7152C63.1157 38.6578 62.9616 38.5849 62.8501 38.4963L63.0468 38.1225C63.1616 38.2045 63.301 38.27 63.4649 38.3192C63.6289 38.3684 63.7945 38.393 63.9617 38.393C64.3749 38.393 64.5816 38.275 64.5816 38.0388C64.5816 37.9601 64.5537 37.8978 64.4979 37.8519C64.4422 37.806 64.3725 37.7724 64.2889 37.7511C64.2052 37.7298 64.0864 37.706 63.9322 37.6798C63.7224 37.647 63.551 37.6092 63.4182 37.5666C63.2854 37.524 63.1714 37.4518 63.0763 37.3502C62.9812 37.2485 62.9337 37.1059 62.9337 36.9222C62.9337 36.6861 63.0321 36.4967 63.2288 36.3541C63.4256 36.2114 63.6896 36.1401 64.0208 36.1401C64.1946 36.1401 64.3684 36.1614 64.5422 36.2041C64.716 36.2467 64.8587 36.3041 64.9701 36.3762L64.7685 36.7501C64.5553 36.6123 64.3044 36.5435 64.0159 36.5435C63.8158 36.5435 63.6633 36.5763 63.5584 36.6418C63.4535 36.7074 63.401 36.7943 63.401 36.9026C63.401 36.9878 63.4305 37.055 63.4895 37.1042C63.5486 37.1534 63.6215 37.1895 63.7084 37.2124C63.7953 37.2354 63.9175 37.2616 64.0749 37.2911C64.2848 37.3272 64.4545 37.3658 64.584 37.4068C64.7135 37.4478 64.8242 37.5174 64.916 37.6158C65.0079 37.7142 65.0538 37.8519 65.0538 38.029C65.0538 38.2651 64.9529 38.4529 64.7513 38.5922C64.5496 38.7316 64.2749 38.8013 63.9273 38.8013ZM68.0002 37.483C68.0002 37.5191 67.997 37.5666 67.9904 37.6257H65.8753C65.9048 37.8552 66.0056 38.0397 66.1778 38.179C66.3499 38.3184 66.5639 38.3881 66.8197 38.3881C67.1312 38.3881 67.3821 38.2832 67.5723 38.0733L67.833 38.3783C67.7149 38.516 67.5682 38.6209 67.3928 38.6931C67.2173 38.7652 67.0214 38.8013 66.8049 38.8013C66.5295 38.8013 66.2852 38.7447 66.072 38.6316C65.8588 38.5185 65.6941 38.3602 65.5776 38.1569C65.4612 37.9536 65.403 37.724 65.403 37.4682C65.403 37.2157 65.4596 36.9878 65.5727 36.7845C65.6859 36.5812 65.8416 36.4229 66.04 36.3098C66.2384 36.1967 66.4622 36.1401 66.7115 36.1401C66.9607 36.1401 67.1829 36.1967 67.378 36.3098C67.5731 36.4229 67.7256 36.5812 67.8355 36.7845C67.9453 36.9878 68.0002 37.2207 68.0002 37.483ZM66.7115 36.5385C66.4852 36.5385 66.2958 36.6074 66.1433 36.7451C65.9908 36.8829 65.9015 37.0632 65.8753 37.2862H67.5477C67.5215 37.0665 67.4321 36.887 67.2796 36.7476C67.1271 36.6082 66.9377 36.5385 66.7115 36.5385Z" fill="#FBFBFB"/>
</svg>
